<svg width="91" height="25" viewBox="0 0 91 25" fill="none" xmlns="http://www.w3.org/2000/svg">
<g filter="url(#filter0_b)">
<path fill-rule="evenodd" clip-rule="evenodd" d="M1.0188 13.7259C1.02743 19.4723 5.69279 24.1237 11.4392 24.115L78.7431 24.014C84.8182 24.0048 89.7356 19.0726 89.7265 12.9975L89.7175 7.02127L89.7126 3.73556L89.7101 2.0927C89.7101 2.0927 89.7085 0.997464 88.9873 0.998547C88.7215 0.998946 88.0643 1.29745 87.3403 1.67428C85.5538 2.60417 83.5982 3.19712 81.5842 3.20015L11.4079 3.30555C5.66154 3.31418 1.01017 7.97954 1.0188 13.7259V13.7259Z" fill="#F5F5F5" fill-opacity="0.7"/>
<path fill-rule="evenodd" clip-rule="evenodd" d="M1.0188 13.7259C1.02743 19.4723 5.69279 24.1237 11.4392 24.115L78.7431 24.014C84.8182 24.0048 89.7356 19.0726 89.7265 12.9975L89.7175 7.02127L89.7126 3.73556L89.7101 2.0927C89.7101 2.0927 89.7085 0.997464 88.9873 0.998547C88.7215 0.998946 88.0643 1.29745 87.3403 1.67428C85.5538 2.60417 83.5982 3.19712 81.5842 3.20015L11.4079 3.30555C5.66154 3.31418 1.01017 7.97954 1.0188 13.7259V13.7259Z" stroke="#262222"/>
</g>
<path d="M20.9043 11.4277C21.3848 10.8379 22.0098 10.543 22.7793 10.543C24.1191 10.543 24.7949 11.2988 24.8066 12.8105V17H23.7227V12.8047C23.7188 12.3477 23.6133 12.0098 23.4062 11.791C23.2031 11.5723 22.8848 11.4629 22.4512 11.4629C22.0996 11.4629 21.791 11.5566 21.5254 11.7441C21.2598 11.9316 21.0527 12.1777 20.9043 12.4824V17H19.8203V8H20.9043V11.4277ZM29.0605 17.1172C28.2012 17.1172 27.502 16.8359 26.9629 16.2734C26.4238 15.707 26.1543 14.9512 26.1543 14.0059V13.8066C26.1543 13.1777 26.2734 12.6172 26.5117 12.125C26.7539 11.6289 27.0898 11.2422 27.5195 10.9648C27.9531 10.6836 28.4219 10.543 28.9258 10.543C29.75 10.543 30.3906 10.8145 30.8477 11.3574C31.3047 11.9004 31.5332 12.6777 31.5332 13.6895V14.1406H27.2383C27.2539 14.7656 27.4355 15.2715 27.7832 15.6582C28.1348 16.041 28.5801 16.2324 29.1191 16.2324C29.502 16.2324 29.8262 16.1543 30.0918 15.998C30.3574 15.8418 30.5898 15.6348 30.7891 15.377L31.4512 15.8926C30.9199 16.709 30.123 17.1172 29.0605 17.1172ZM28.9258 11.4336C28.4883 11.4336 28.1211 11.5938 27.8242 11.9141C27.5273 12.2305 27.3438 12.6758 27.2734 13.25H30.4492V13.168C30.418 12.6172 30.2695 12.1914 30.0039 11.8906C29.7383 11.5859 29.3789 11.4336 28.9258 11.4336ZM34.7852 15.4121L36.2617 10.6602H37.4219L34.873 17.9785C34.4785 19.0332 33.8516 19.5605 32.9922 19.5605L32.7871 19.543L32.3828 19.4668V18.5879L32.6758 18.6113C33.043 18.6113 33.3281 18.5371 33.5312 18.3887C33.7383 18.2402 33.9082 17.9688 34.041 17.5742L34.2812 16.9297L32.0195 10.6602H33.2031L34.7852 15.4121ZM37.7266 18.6992L37.1113 18.2773C37.4785 17.7656 37.6699 17.2383 37.6855 16.6953V15.7168H38.7461V16.5664C38.7461 16.9609 38.6484 17.3555 38.4531 17.75C38.2617 18.1445 38.0195 18.4609 37.7266 18.6992ZM47.0078 16.373C46.5859 16.8691 45.9668 17.1172 45.1504 17.1172C44.4746 17.1172 43.959 16.9219 43.6035 16.5312C43.252 16.1367 43.0742 15.5547 43.0703 14.7852V10.6602H44.1543V14.7559C44.1543 15.7168 44.5449 16.1973 45.3262 16.1973C46.1543 16.1973 46.7051 15.8887 46.9785 15.2715V10.6602H48.0625V17H47.0312L47.0078 16.373ZM56.6055 16.373C56.1836 16.8691 55.5645 17.1172 54.748 17.1172C54.0723 17.1172 53.5566 16.9219 53.2012 16.5312C52.8496 16.1367 52.6719 15.5547 52.668 14.7852V10.6602H53.752V14.7559C53.752 15.7168 54.1426 16.1973 54.9238 16.1973C55.752 16.1973 56.3027 15.8887 56.5762 15.2715V10.6602H57.6602V17H56.6289L56.6055 16.373ZM64.668 13.9004C64.668 14.8652 64.4473 15.6426 64.0059 16.2324C63.5645 16.8223 62.9668 17.1172 62.2129 17.1172C61.4434 17.1172 60.8379 16.873 60.3965 16.3848V19.4375H59.3125V10.6602H60.3027L60.3555 11.3633C60.7969 10.8164 61.4102 10.543 62.1953 10.543C62.957 10.543 63.5586 10.8301 64 11.4043C64.4453 11.9785 64.668 12.7773 64.668 13.8008V13.9004ZM63.584 13.7773C63.584 13.0625 63.4316 12.498 63.127 12.084C62.8223 11.6699 62.4043 11.4629 61.873 11.4629C61.2168 11.4629 60.7246 11.7539 60.3965 12.3359V15.3652C60.7207 15.9434 61.2168 16.2324 61.8848 16.2324C62.4043 16.2324 62.8164 16.0273 63.1211 15.6172C63.4297 15.2031 63.584 14.5898 63.584 13.7773ZM67.3223 14.5977C67.3301 14.1328 67.3828 13.7656 67.4805 13.4961C67.5781 13.2266 67.7773 12.9277 68.0781 12.5996L68.8457 11.8086C69.1738 11.4375 69.3379 11.0391 69.3379 10.6133C69.3379 10.2031 69.2305 9.88281 69.0156 9.65234C68.8008 9.41797 68.4883 9.30078 68.0781 9.30078C67.6797 9.30078 67.3594 9.40625 67.1172 9.61719C66.875 9.82812 66.7539 10.1113 66.7539 10.4668H65.6699C65.6777 9.83398 65.9023 9.32422 66.3438 8.9375C66.7891 8.54688 67.3672 8.35156 68.0781 8.35156C68.8164 8.35156 69.3906 8.55078 69.8008 8.94922C70.2148 9.34375 70.4219 9.88672 70.4219 10.5781C70.4219 11.2617 70.1055 11.9355 69.4727 12.5996L68.834 13.2324C68.5488 13.5488 68.4062 14.0039 68.4062 14.5977H67.3223ZM67.2754 16.4551C67.2754 16.2793 67.3281 16.1328 67.4336 16.0156C67.543 15.8945 67.7031 15.834 67.9141 15.834C68.125 15.834 68.2852 15.8945 68.3945 16.0156C68.5039 16.1328 68.5586 16.2793 68.5586 16.4551C68.5586 16.6309 68.5039 16.7773 68.3945 16.8945C68.2852 17.0078 68.125 17.0645 67.9141 17.0645C67.7031 17.0645 67.543 17.0078 67.4336 16.8945C67.3281 16.7773 67.2754 16.6309 67.2754 16.4551Z" fill="black"/>
<defs>
<filter id="filter0_b" x="-3.50098" y="-3.5033" width="97.7447" height="32.1347" filterUnits="userSpaceOnUse" color-interpolation-filters="sRGB">
<feFlood flood-opacity="0" result="BackgroundImageFix"/>
<feGaussianBlur in="BackgroundImage" stdDeviation="2"/>
<feComposite in2="SourceAlpha" operator="in" result="effect1_backgroundBlur"/>
<feBlend mode="normal" in="SourceGraphic" in2="effect1_backgroundBlur" result="shape"/>
</filter>
</defs>
</svg>
